<?xml version="1.0" standalone="no"?>
<!DOCTYPE svg PUBLIC "-//W3C//DTD SVG 20010904//EN"
 "http://www.w3.org/TR/2001/REC-SVG-20010904/DTD/svg10.dtd">
<svg version="1.0" xmlns="http://www.w3.org/2000/svg"
 width="800.000000pt" height="667.000000pt" viewBox="0 0 800.000000 667.000000"
 preserveAspectRatio="xMidYMid meet">

<g transform="translate(0.000000,667.000000) scale(0.100000,-0.100000)"
fill="#000000" stroke="none">
<path d="M3578 6395 c-2 -2 -31 -6 -63 -9 -117 -10 -160 -20 -415 -98 -36 -10
-94 -28 -130 -38 -186 -53 -353 -127 -530 -234 -51 -31 -97 -56 -102 -56 -4 0
-8 -4 -8 -8 0 -4 -9 -8 -19 -9 -30 -2 -75 -35 -60 -44 14 -9 37 -2 62 19 9 8
17 12 17 8 0 -4 12 2 26 13 15 12 32 21 38 21 6 0 4 -5 -4 -11 -12 -9 -10 -10
9 -5 14 3 20 1 15 -4 -5 -5 -19 -11 -30 -13 -11 -1 -49 -17 -84 -34 -70 -33
-150 -49 -150 -30 0 8 -3 8 -8 -1 -5 -7 -33 -16 -63 -21 -63 -11 -169 -40
-184 -51 -5 -4 -21 -11 -34 -15 -55 -17 -181 -81 -251 -129 -85 -57 -240 -205
-240 -229 0 -9 -8 -21 -18 -26 -16 -9 -108 -183 -180 -342 -46 -99 -112 -319
-142 -466 -14 -73 -23 -130 -18 -127 4 3 8 10 8 16 0 6 18 49 41 96 30 63 43
82 50 71 5 -8 9 -21 9 -29 0 -12 -2 -12 -9 -1 -6 9 -11 10 -15 2 -4 -6 -5 -15
-2 -20 8 -13 -4 -42 -15 -36 -4 3 -13 -3 -18 -14 -16 -29 -13 -39 5 -16 14 19
16 19 28 2 11 -15 15 -15 19 -3 3 8 1 16 -5 18 -7 3 -3 13 10 26 12 12 24 33
28 47 3 14 10 25 14 25 4 0 -4 -31 -18 -69 -19 -50 -34 -74 -54 -86 -55 -32
-210 -185 -254 -248 -80 -118 -103 -193 -97 -318 6 -135 44 -246 143 -418 66
-114 193 -271 230 -283 12 -4 15 -27 14 -129 -2 -141 -13 -191 -81 -372 -64
-171 -71 -200 -88 -395 -16 -172 -16 -192 4 -327 25 -169 122 -423 214 -557
45 -66 202 -245 331 -376 197 -203 515 -419 751 -512 33 -13 65 -27 70 -31 6
-4 50 -17 100 -29 74 -18 118 -21 261 -21 94 0 177 3 185 5 8 3 48 7 88 11 41
3 78 8 81 10 3 2 50 9 105 15 55 6 111 13 125 16 14 2 52 6 85 9 l60 5 -75
-15 c-41 -9 -89 -17 -107 -19 -17 -2 -78 -22 -135 -45 -77 -31 -117 -54 -156
-89 -57 -52 -63 -63 -30 -54 14 3 19 1 14 -6 -3 -6 -26 -41 -51 -78 -24 -37
-58 -100 -76 -141 -17 -40 -38 -73 -45 -73 -7 0 -16 -5 -19 -11 -5 -7 22 -9
84 -7 50 2 91 6 91 11 0 4 7 7 16 7 8 0 12 -4 9 -10 -4 -6 7 -10 24 -10 29 0
41 13 24 23 -5 2 -2 2 5 1 6 -2 12 0 12 5 0 5 14 11 31 13 28 4 30 3 24 -19
-8 -32 11 -29 24 5 l11 27 -5 -27 -5 -27 125 1 c117 1 125 2 125 20 0 11 -8
33 -17 49 -19 32 -17 38 23 45 16 3 51 12 78 20 61 17 81 17 41 -1 -16 -8 -24
-14 -17 -15 7 0 10 -5 6 -11 -4 -8 -9 -8 -17 0 -14 14 -40 14 -31 0 4 -7 0 -9
-14 -5 -24 8 -72 -2 -72 -15 0 -5 7 -9 16 -9 9 0 12 -5 8 -13 -5 -8 -2 -8 9 2
9 7 17 10 17 6 0 -4 7 -2 16 6 12 10 17 10 23 1 4 -7 15 -10 24 -6 10 3 17 1
17 -5 0 -11 -20 -15 -49 -12 -7 2 -10 -2 -6 -8 3 -6 -1 -14 -9 -17 -26 -10
-19 -34 9 -34 14 0 25 5 25 11 0 14 25 39 39 39 6 0 11 5 11 10 0 6 12 10 28
10 35 0 72 26 72 50 0 10 -3 20 -7 23 -5 2 -2 2 5 1 6 -2 12 3 12 11 0 8 -5
15 -11 15 -5 0 -7 5 -4 10 3 6 14 10 23 9 10 0 12 -3 5 -5 -7 -3 -9 -12 -6
-20 14 -38 -34 -104 -82 -112 -11 -1 -21 -7 -23 -12 -2 -5 -10 -6 -18 -3 -9 3
-14 -2 -14 -16 0 -21 4 -21 180 -21 153 0 180 2 180 15 0 8 6 15 14 15 8 0 22
3 31 7 15 5 16 3 6 -15 -10 -19 -9 -22 9 -22 12 0 20 7 21 18 0 15 1 15 7 1 5
-11 24 -16 70 -18 34 -1 62 2 62 7 0 5 7 9 15 9 8 0 15 -4 15 -9 0 -4 23 -8
50 -8 41 0 50 3 51 18 0 14 2 14 7 2 9 -20 52 -25 63 -8 5 7 9 8 9 2 0 -6 24
-12 55 -13 47 -2 55 1 55 16 1 16 2 16 13 2 10 -13 37 -16 146 -17 l133 -1 -6
32 c-3 17 -11 34 -17 38 -19 11 -5 44 19 47 16 2 22 8 18 18 -3 8 -2 14 3 14
12 0 20 -49 10 -56 -5 -3 -9 -1 -9 3 0 5 -9 9 -20 10 -11 1 -20 -1 -20 -5 1
-12 30 -46 30 -35 0 6 9 9 20 6 13 -3 20 0 20 8 0 9 5 6 12 -5 8 -15 8 -21 0
-24 -7 -2 -12 -10 -12 -18 0 -9 -4 -12 -10 -9 -5 3 -10 -1 -10 -9 0 -10 7 -15
21 -13 27 4 40 26 32 54 -3 14 -1 23 6 23 6 0 13 0 16 0 3 0 5 -3 4 -7 -1 -5
-5 -7 -10 -6 -14 4 -11 -14 6 -31 8 -8 15 -19 15 -25 0 -7 61 -10 175 -10 148
-1 175 2 175 14 0 8 6 15 14 15 8 0 22 3 30 6 12 5 15 2 10 -9 -3 -9 -13 -18
-22 -20 -10 -3 -7 -5 9 -6 14 0 30 4 37 11 9 9 12 9 12 0 0 -16 122 -16 138 0
9 9 12 9 12 0 0 -9 38 -12 140 -11 115 0 140 3 140 15 0 7 7 14 15 14 8 0 15
-7 15 -15 0 -10 11 -15 35 -15 24 0 35 5 35 15 0 8 -5 15 -12 15 -6 0 -8 3 -4
7 4 4 16 -3 26 -17 42 -56 21 7 -40 120 -20 37 -26 75 -11 66 5 -4 11 -3 14 1
2 5 2 3 1 -4 -2 -6 8 -18 20 -27 13 -8 31 -22 40 -31 27 -27 18 -9 -24 52 -43
63 -54 92 -17 46 28 -34 78 -107 93 -133 13 -23 53 -78 72 -97 9 -8 39 -13 89
-13 73 0 75 1 62 20 -8 10 -41 58 -74 106 -33 48 -110 139 -171 204 -61 64
-116 125 -122 136 -6 10 -25 28 -44 38 l-33 19 20 -23 c18 -21 15 -20 -25 6
-25 16 -58 38 -75 50 -16 12 -70 43 -120 69 -62 33 -114 70 -166 120 -57 55
-98 83 -163 114 -48 23 -89 41 -93 41 -4 0 4 -11 17 -25 l23 -24 -30 8 c-16 5
-39 15 -51 22 -17 11 -24 11 -34 1 -6 -6 -17 -12 -22 -12 -6 0 -4 5 4 11 19
13 -263 6 -405 -10 -349 -40 -907 -152 -945 -191 -7 -7 -182 -93 -245 -121
-42 -18 -74 -23 -208 -27 -236 -7 -456 25 -642 94 -38 14 -79 28 -90 31 -57
14 -235 97 -360 169 -65 37 -251 165 -293 201 -17 15 -101 86 -185 157 -156
133 -265 246 -315 326 -65 106 -195 420 -211 511 -10 62 -9 74 23 200 19 74
37 141 39 149 3 8 17 56 31 105 15 50 33 110 41 135 63 192 84 355 68 525 -4
50 -5 137 -2 195 4 58 12 200 19 315 13 239 16 269 30 345 6 30 12 66 14 80 2
14 5 32 9 40 3 8 15 47 27 87 29 97 158 344 200 383 3 3 18 22 33 43 40 53 73
84 145 138 l62 47 -27 9 c-16 6 -22 12 -16 16 6 4 33 -8 59 -26 73 -50 193
-113 244 -128 25 -7 50 -16 56 -21 25 -18 125 -33 219 -32 86 1 115 6 205 37
58 19 123 43 145 53 22 10 43 17 48 16 4 -1 7 2 7 7 0 5 13 12 30 16 16 4 32
10 35 14 2 5 28 20 57 35 90 46 219 167 301 283 46 67 101 175 134 266 14 40
30 78 35 85 14 17 43 15 81 -5 59 -30 489 -175 726 -244 263 -77 374 -99 500
-99 106 0 111 -2 111 -57 0 -83 91 -352 220 -648 28 -66 69 -160 90 -210 47
-109 93 -194 137 -256 18 -26 33 -51 33 -57 0 -6 3 -12 8 -14 4 -1 24 -25 44
-53 41 -56 180 -197 222 -224 l28 -18 2 -189 c2 -104 8 -211 14 -239 14 -58
114 -315 123 -315 4 0 0 26 -7 58 -8 31 -14 68 -14 82 0 27 35 65 50 55 6 -4
10 -1 10 5 0 17 43 56 69 63 20 5 15 -3 -25 -44 -61 -62 -49 -64 19 -4 152
134 383 173 545 91 122 -61 189 -149 218 -285 18 -88 18 -316 -1 -406 -40
-188 -122 -395 -209 -524 -20 -29 -36 -57 -36 -62 0 -5 -4 -9 -10 -9 -5 0 -10
-5 -10 -10 0 -6 -4 -16 -10 -23 -5 -7 -39 -48 -73 -92 -58 -73 -78 -93 -160
-162 -44 -37 -138 -80 -214 -97 -69 -15 -203 -22 -203 -10 0 3 5 15 11 27 8
19 6 18 -13 -4 -19 -22 -28 -25 -52 -18 -41 11 -47 2 -8 -12 18 -6 32 -13 32
-17 0 -9 -105 -144 -141 -182 -61 -63 -203 -186 -263 -228 -63 -45 -150 -82
-194 -83 -15 0 -36 -4 -47 -9 -26 -12 176 -3 265 11 88 15 201 46 285 79 69
28 293 135 390 188 71 38 219 134 223 144 2 4 8 8 14 8 6 0 29 15 52 33 23 19
48 38 58 43 9 5 32 24 52 41 19 18 38 33 41 33 3 0 19 14 35 30 16 17 31 30
34 30 9 0 121 122 124 136 2 8 10 14 17 14 8 0 19 10 26 23 6 12 28 42 48 67
21 25 40 53 44 63 3 9 11 17 17 17 5 0 10 7 10 15 0 8 3 15 8 15 4 0 13 15 21
32 8 18 17 35 20 38 3 3 15 21 25 40 11 19 30 54 43 78 12 24 23 50 23 58 0 7
5 14 10 14 6 0 10 6 10 13 0 6 11 34 25 61 14 27 25 59 25 71 0 12 3 25 7 29
33 32 73 309 68 471 -8 252 -100 703 -195 958 -29 77 -37 66 -11 -16 18 -60
37 -148 46 -215 1 -15 8 -54 13 -87 23 -136 35 -289 24 -293 -7 -2 -12 -12
-12 -22 0 -24 -10 -50 -20 -50 -7 0 -30 108 -30 141 0 12 2 12 10 -1 5 -8 12
-12 15 -8 9 9 -6 59 -16 52 -5 -3 -7 -10 -4 -15 4 -5 2 -9 -3 -9 -5 0 -15 35
-22 78 -12 73 -44 198 -92 357 -11 39 -22 99 -23 135 -2 36 -8 76 -14 90 -6
14 -17 59 -25 100 -8 41 -24 125 -35 185 -12 61 -26 139 -32 175 -6 36 -17 90
-25 120 -19 81 -28 169 -15 150 13 -19 14 0 1 20 -5 8 -10 11 -11 5 -1 -5 -5
13 -9 40 -4 30 -3 55 3 63 5 7 7 16 3 19 -4 4 -11 1 -16 -7 -6 -8 -10 -13 -10
-10 0 3 -4 20 -9 38 -6 20 -6 30 0 27 5 -4 9 -1 9 4 0 6 -6 11 -12 11 -7 0
-37 57 -66 126 -30 69 -72 157 -94 195 -35 61 -39 74 -29 95 6 15 7 24 1 24
-6 0 -10 -7 -10 -15 0 -26 -17 -16 -30 18 -21 50 -119 174 -156 196 -19 11
-34 26 -34 33 0 11 -2 10 -9 0 -6 -10 -10 -10 -21 3 -7 8 -17 15 -22 15 -5 0
-39 18 -75 40 -37 22 -63 40 -59 40 16 0 81 -34 89 -47 4 -7 15 -13 23 -13 8
0 12 5 9 11 -4 6 2 5 14 -3 12 -7 21 -16 21 -21 0 -4 5 -5 11 -1 7 4 -5 22
-32 46 -53 49 -33 40 36 -16 72 -58 176 -166 169 -177 -3 -5 1 -9 8 -9 11 0
88 -76 88 -87 0 -6 44 -67 54 -74 5 -4 5 -12 2 -18 -4 -6 -3 -11 3 -11 5 0 20
-17 32 -37 13 -21 26 -40 29 -43 10 -8 105 -169 134 -228 15 -30 25 -59 23
-65 -2 -7 3 -17 11 -23 28 -20 121 -487 122 -608 0 -53 -3 -62 -31 -88 -36
-35 -32 -49 7 -23 l27 18 -6 -84 c-4 -49 -12 -86 -19 -91 -8 -4 -14 -2 -16 7
-4 16 -22 21 -22 6 0 -26 13 -37 40 -35 29 2 30 1 30 -42 0 -32 4 -44 15 -44
19 0 19 4 -1 81 -23 88 -13 208 18 229 13 8 52 40 89 70 36 30 80 66 98 80 18
14 132 125 254 246 142 142 245 236 287 263 36 22 62 41 57 41 -28 0 -305
-160 -402 -233 -57 -43 -233 -223 -326 -333 l-79 -94 0 157 c0 247 -15 490
-32 518 -3 6 -9 27 -12 49 -4 21 -12 50 -18 65 -6 14 -12 38 -14 53 -2 15 -17
56 -33 90 -16 35 -33 75 -36 91 -4 15 -11 27 -16 27 -5 0 -9 5 -9 11 0 7 -16
36 -35 65 -19 29 -35 55 -35 58 0 14 -209 229 -249 256 -12 8 -37 28 -54 44
-70 62 -286 194 -309 188 -5 -1 -8 2 -8 7 0 4 60 32 133 61 152 60 279 122
375 183 93 58 292 200 288 204 -2 2 -32 -12 -67 -31 -35 -19 -131 -65 -214
-102 -159 -72 -214 -101 -367 -200 -165 -107 -170 -109 -252 -70 -29 14 -87
34 -129 45 -43 11 -82 23 -87 26 -5 3 -28 9 -52 14 -24 5 -97 23 -162 40 -163
42 -524 96 -486 73 8 -5 35 -12 59 -16 44 -7 439 -136 506 -165 22 -10 55 -23
70 -27 49 -14 159 -65 158 -73 -2 -6 4 -8 11 -5 18 7 202 -90 239 -125 20 -20
24 -28 13 -28 -9 0 -16 6 -16 14 0 7 -4 13 -10 13 -5 0 -10 -5 -10 -11 0 -6
-7 -8 -16 -5 -8 3 -13 2 -10 -3 5 -7 -19 -8 -69 -1 -5 1 -1 6 10 11 17 8 16 8
-7 4 -30 -6 -162 60 -152 76 3 5 -2 6 -10 3 -8 -3 -21 -2 -28 2 -7 5 -17 9
-23 10 -5 1 -53 22 -105 47 -196 94 -400 165 -567 197 -98 19 -114 26 -209 85
-56 35 -137 82 -179 105 -42 22 -84 45 -93 50 -9 5 -35 17 -57 26 -22 9 -58
25 -80 34 -43 19 -114 44 -130 46 -5 0 -22 6 -37 12 -50 21 -395 52 -410 37z
m292 -156 c25 -6 59 -12 75 -13 37 -4 138 -23 185 -36 157 -43 220 -65 220
-77 0 -7 5 -13 11 -13 6 0 9 -7 5 -15 -3 -8 -1 -15 4 -15 6 0 10 9 10 20 0 11
4 20 8 20 11 0 115 -43 172 -71 104 -51 280 -188 280 -218 0 -22 -22 -20 -62
5 -24 15 -74 42 -113 59 -38 18 -122 57 -185 87 -116 55 -168 75 -272 103 -32
9 -58 19 -58 23 0 4 -17 7 -37 8 -21 0 -108 16 -193 33 -145 31 -168 33 -365
34 -201 1 -406 -17 -505 -43 -116 -30 -184 -42 -188 -31 -2 6 -8 11 -14 11 -6
0 -8 -6 -5 -14 4 -10 -11 -19 -51 -31 -31 -9 -84 -25 -116 -36 -56 -18 -61
-18 -78 -2 -10 9 -16 18 -13 21 6 6 159 57 235 78 138 39 325 80 560 123 69
13 429 6 490 -10z m-1307 -224 c-4 -11 0 -14 13 -9 11 4 16 4 13 1 -9 -11 -99
-36 -99 -27 0 4 14 10 30 14 29 5 43 26 18 26 -9 0 -8 3 2 9 18 12 31 5 23
-14z m-55 -12 c-9 -2 -24 -15 -32 -29 -9 -13 -24 -24 -34 -23 -13 0 -12 3 6
11 12 6 22 15 22 21 0 6 -4 6 -12 0 -16 -12 -48 -24 -48 -18 0 9 76 44 95 43
16 0 16 -1 3 -5z m-217 -181 c-5 -10 -36 -26 -68 -36 -132 -41 -336 -127 -361
-153 -8 -8 -23 -12 -33 -10 -10 3 -26 -2 -36 -10 -17 -14 -17 -14 1 -9 16 6
17 4 6 -9 -7 -9 -19 -14 -27 -11 -8 3 -12 2 -9 -3 5 -7 -57 -65 -76 -70 -15
-4 -66 -57 -79 -83 -9 -18 -18 -25 -27 -19 -19 12 164 194 263 262 109 74 165
103 265 132 90 27 118 33 163 36 24 1 26 -2 18 -17z m254 -312 c3 -6 -4 -25
-17 -42 -12 -18 -35 -57 -50 -88 -15 -30 -37 -70 -47 -89 -45 -76 -168 -214
-184 -204 -5 3 -7 2 -4 -4 9 -15 -63 -69 -136 -103 -90 -43 -207 -71 -322 -77
-110 -6 -128 2 -25 11 152 14 253 57 400 169 129 99 288 281 342 392 22 46 32
53 43 35z m695 -44 c0 -2 -8 -10 -17 -17 -16 -13 -17 -12 -4 4 13 16 21 21 21
13z m-1665 -76 c3 -6 -1 -13 -9 -16 -9 -3 -13 -10 -10 -15 3 -5 1 -9 -3 -9 -5
0 -19 -18 -33 -40 -14 -22 -28 -40 -31 -40 -15 0 -2 62 14 71 9 6 17 15 17 21
0 11 29 37 42 38 4 0 10 -5 13 -10z m-99 -113 c-1 -18 -12 -51 -26 -72 -33
-53 -62 -106 -105 -190 -19 -38 -39 -77 -44 -85 -5 -8 -27 -55 -50 -105 -37
-81 -61 -115 -61 -86 0 6 5 11 11 11 5 0 8 4 5 9 -4 5 -3 11 1 14 5 2 2 2 -6
0 -8 -2 -18 2 -23 9 -6 8 -7 4 -3 -11 5 -15 3 -21 -3 -17 -6 4 -18 -9 -28 -29
-9 -20 -18 -34 -20 -32 -2 2 11 35 30 73 18 38 37 80 41 94 4 14 19 45 33 70
14 25 35 63 46 85 12 22 31 54 44 72 12 17 22 34 22 37 0 9 38 62 68 94 12 14
22 29 22 35 0 5 7 4 15 -3 9 -7 18 -10 22 -6 4 3 -2 13 -13 21 -11 8 -14 15
-6 15 6 0 12 7 12 15 0 8 4 15 8 15 5 0 8 -15 8 -33z m1551 -71 c-12 -18 -24
-29 -26 -24 -3 8 36 58 45 58 2 0 -7 -15 -19 -34z m-54 -61 c-3 -9 -8 -14 -10
-11 -3 3 -2 9 2 15 9 16 15 13 8 -4z m-1288 -184 c-16 -14 -55 -23 -55 -12 0
8 16 14 55 20 6 0 6 -2 0 -8z m49 -130 c-1 -1 -12 4 -24 12 -20 14 -20 15 -3
19 15 3 37 -20 27 -31z m-554 -130 c14 22 23 3 10 -21 -10 -18 -14 -20 -21 -9
-5 8 -8 23 -8 34 1 19 2 19 6 1 4 -15 7 -16 13 -5z m-27 -25 c4 -9 -2 -13 -19
-13 -13 0 -24 4 -24 9 0 5 4 7 9 3 5 -3 12 -1 16 5 8 13 12 13 18 -4z m217
-61 c-7 -9 -15 -13 -18 -10 -3 2 1 11 8 20 7 9 15 13 18 10 3 -2 -1 -11 -8
-20z m-295 -201 c-14 -25 -32 -72 -39 -104 -8 -32 -17 -63 -21 -70 -3 -6 -8
-23 -10 -39 -2 -15 -13 -77 -24 -137 -30 -166 -33 -200 -32 -323 1 -102 12
-206 26 -258 15 -53 -61 125 -86 201 -32 96 -39 184 -25 288 6 47 10 56 24 51
13 -4 14 -3 3 5 -11 8 -11 19 -2 59 16 65 50 156 83 218 23 44 112 155 124
155 3 0 -7 -21 -21 -46z m24 -1137 c7 -21 11 -41 8 -43 -9 -10 -49 67 -43 83
8 21 18 9 35 -40z m5661 -173 c0 -21 -4 -33 -10 -29 -5 3 -10 19 -10 36 0 16
5 29 10 29 6 0 10 -16 10 -36z m-32 -46 c-2 -7 4 -13 12 -13 23 0 28 -29 29
-172 1 -122 0 -132 -16 -127 -16 5 -16 4 -3 -8 9 -8 14 -26 12 -49 -3 -31 -6
-36 -23 -32 -24 7 -26 -22 -3 -35 12 -7 15 -17 10 -38 -3 -16 -9 -40 -11 -54
-11 -49 -38 -131 -46 -136 -5 -3 -6 2 -3 11 4 8 1 22 -6 30 -9 10 -9 15 -1 15
6 0 11 -6 12 -12 1 -17 17 22 18 42 0 11 -3 10 -14 -4 -13 -17 -15 -17 -15 -3
0 9 10 23 22 31 26 18 22 27 -8 16 -15 -6 -23 -20 -28 -50 -3 -23 -4 -45 -1
-50 3 -6 0 -7 -8 -4 -11 4 -13 13 -6 42 5 20 16 82 24 137 23 146 23 148 43
141 15 -5 15 -4 -1 8 -13 10 -15 16 -7 21 9 6 9 10 -1 17 -11 8 -11 11 -1 15
10 4 10 8 1 19 -6 8 -8 14 -3 14 5 0 7 25 6 56 -3 36 0 54 6 50 6 -3 8 -25 5
-49 l-5 -42 22 39 c15 27 18 42 11 49 -7 7 -7 15 2 25 8 11 9 16 1 19 -6 2 -9
15 -6 28 3 19 0 25 -13 25 -14 0 -15 -3 -5 -15 9 -11 10 -15 1 -15 -8 0 -10
-8 -5 -22 3 -13 3 -20 -1 -16 -5 4 -11 28 -15 53 -6 40 -4 48 18 54 1 1 1 -5
0 -11z m-48 -696 c0 -5 -7 -17 -15 -28 -14 -18 -14 -17 -4 9 12 27 19 34 19
19z m-69 -136 c-14 -36 -22 -33 -9 5 6 16 12 28 14 26 3 -2 0 -16 -5 -31z
m-663 -791 c-29 -25 -74 -64 -99 -86 -70 -61 -200 -159 -211 -159 -6 0 43 43
108 96 66 52 124 101 129 107 27 32 97 87 110 87 9 0 -8 -20 -37 -45z m-359
-31 c2 -2 -12 -4 -32 -4 -22 0 -37 -5 -37 -12 0 -6 -3 -9 -6 -5 -4 3 -4 13 -1
21 5 12 15 14 39 9 18 -3 35 -7 37 -9z m-99 -94 c0 -5 -5 -10 -11 -10 -5 0 -7
5 -4 10 3 6 8 10 11 10 2 0 4 -4 4 -10z m140 -134 c0 -2 -7 -7 -16 -10 -8 -3
-12 -2 -9 4 6 10 25 14 25 6z m-300 -171 c-34 -19 -61 -19 -54 0 4 10 19 15
43 15 l36 -1 -25 -14z m-245 -75 c-27 -12 -43 -12 -25 0 8 5 22 9 30 9 10 0 8
-3 -5 -9z m-194 -88 c7 10 9 9 9 -5 0 -13 -7 -17 -29 -15 -16 1 -27 6 -25 10
3 4 0 8 -6 8 -6 0 -8 5 -5 10 8 13 -36 13 -72 -1 -18 -7 -25 -7 -18 0 6 6 28
14 50 19 36 8 43 6 64 -15 19 -20 25 -22 32 -11z m-211 -12 c-14 -4 -38 -8
-55 -8 -29 0 -29 0 -5 8 14 4 39 8 55 8 29 0 29 0 5 -8z m383 -31 c37 -36 38
-38 10 -19 -18 12 -33 25 -33 29 0 4 -10 13 -22 19 -13 6 -17 11 -10 11 7 1
32 -17 55 -40z m-558 2 c-31 -13 -91 -24 -83 -16 8 8 63 23 88 23 9 1 7 -3 -5
-7z m162 -7 c-3 -3 -12 -4 -19 -1 -8 3 -5 6 6 6 11 1 17 -2 13 -5z m-57 -12
c0 -9 -44 -32 -62 -32 -14 0 34 39 50 40 6 0 12 -4 12 -8z m-245 -12 c-11 -4
-56 -15 -100 -24 -44 -10 -91 -19 -105 -22 -14 -3 -22 -3 -18 1 7 7 202 53
228 53 9 1 7 -3 -5 -8z m222 -36 c-3 -3 -12 -4 -19 -1 -8 3 -5 6 6 6 11 1 17
-2 13 -5z m-464 -21 c-7 -2 -19 -2 -25 0 -7 3 -2 5 12 5 14 0 19 -2 13 -5z
m-106 -29 c-3 -3 -12 -4 -19 -1 -8 3 -5 6 6 6 11 1 17 -2 13 -5z m-34 -11 c3
-5 -16 -8 -41 -9 -32 -1 -41 1 -27 7 26 10 63 11 68 2z m1272 -11 c-3 -3 -11
0 -18 7 -9 10 -8 11 6 5 10 -3 15 -9 12 -12z m-1365 -13 c0 -5 -8 -9 -17 -9
-15 0 -16 -2 -3 -10 11 -7 12 -10 2 -10 -19 0 -45 27 -30 32 23 8 48 6 48 -3z
m25 -9 c3 -5 1 -10 -4 -10 -6 0 -11 5 -11 10 0 6 2 10 4 10 3 0 8 -4 11 -10z
m40 -11 c-10 -15 -25 -10 -19 6 4 8 10 12 15 9 5 -3 7 -10 4 -15z m1380 -29
c3 -6 -1 -7 -9 -4 -9 3 -16 1 -16 -4 0 -6 10 -13 23 -15 25 -5 -13 -2 -153 13
-52 5 -176 10 -275 11 -99 1 -166 4 -150 6 17 3 36 10 44 16 12 9 13 9 7 0 -5
-10 3 -13 28 -13 20 0 36 5 36 10 0 6 8 10 18 10 14 0 14 -2 3 -9 -9 -6 34
-10 112 -10 70 -1 132 -3 139 -6 31 -10 149 -14 143 -5 -4 6 1 7 12 3 14 -5
13 0 -7 22 l-25 29 32 -23 c18 -12 35 -26 38 -31z m-1555 25 c0 -1 -11 -5 -25
-7 -20 -4 -23 -2 -14 8 8 10 39 10 39 -1z m274 -1 c4 -9 4 -19 2 -21 -8 -8
-26 8 -26 23 0 19 16 18 24 -2z m973 10 c-3 -3 -12 -4 -19 -1 -8 3 -5 6 6 6
11 1 17 -2 13 -5z m233 -9 c0 -1 -9 -5 -19 -8 -13 -3 -18 -1 -14 9 4 10 33 10
33 -1z m-70 -5 c0 -5 -4 -10 -10 -10 -5 0 -10 5 -10 10 0 6 5 10 10 10 6 0 10
-4 10 -10z m220 -42 c0 -5 -7 -8 -17 -8 -9 0 -14 3 -10 6 3 3 -6 17 -21 30
l-27 25 37 -23 c20 -13 37 -26 38 -30z m-1682 20 c7 -7 12 -19 12 -27 0 -17
-15 -5 -15 12 0 7 -13 11 -30 10 -22 -2 -26 0 -15 7 20 13 34 12 48 -2z m69 6
c-3 -3 -12 -4 -19 -1 -8 3 -5 6 6 6 11 1 17 -2 13 -5z m826 -11 c-7 -2 -21 -2
-30 0 -10 3 -4 5 12 5 17 0 24 -2 18 -5z m-580 -10 c-7 -2 -13 -13 -13 -24 0
-10 -4 -19 -10 -19 -11 0 -13 11 -4 34 3 9 14 16 23 15 10 0 11 -2 4 -6z m44
-30 c-3 -10 -5 -4 -5 12 0 17 2 24 5 18 2 -7 2 -21 0 -30z m436 30 c-7 -2 -21
-2 -30 0 -10 3 -4 5 12 5 17 0 24 -2 18 -5z m-113 -12 c0 -8 -81 -23 -88 -16
-2 2 16 8 40 13 23 5 44 10 46 11 1 1 2 -3 2 -8z m1103 -78 c81 -82 157 -177
157 -197 0 -6 -10 1 -21 17 -11 15 -27 27 -35 27 -8 0 -14 5 -14 11 0 5 5 7
12 3 7 -4 8 -3 4 5 -4 6 -12 8 -18 5 -11 -7 -57 43 -58 62 0 6 -27 41 -61 78
-33 36 -57 66 -52 66 5 0 43 -35 86 -77z m-1990 60 c-7 -2 -19 -2 -25 0 -7 3
-2 5 12 5 14 0 19 -2 13 -5z m542 -3 c3 -5 1 -10 -4 -10 -6 0 -11 5 -11 10 0
6 2 10 4 10 3 0 8 -4 11 -10z m240 0 c-3 -5 -16 -10 -28 -10 -18 0 -19 2 -7
10 20 13 43 13 35 0z m-848 -6 c-3 -3 -12 -4 -19 -1 -8 3 -5 6 6 6 11 1 17 -2
13 -5z m513 -4 c0 -5 -4 -10 -10 -10 -5 0 -10 5 -10 10 0 6 5 10 10 10 6 0 10
-4 10 -10z m277 -6 c-3 -3 -12 -4 -19 -1 -8 3 -5 6 6 6 11 1 17 -2 13 -5z
m1113 -13 c0 -15 -5 -18 -22 -13 -21 5 -21 6 -2 13 16 6 14 8 -9 8 -16 1 -26
-3 -22 -8 3 -6 -4 -9 -15 -8 -39 3 -19 23 25 26 39 2 45 -1 45 -18z m37 13
c-3 -3 -12 -4 -19 -1 -8 3 -5 6 6 6 11 1 17 -2 13 -5z m-364 -11 c-7 -2 -19
-2 -25 0 -7 3 -2 5 12 5 14 0 19 -2 13 -5z m114 0 c-20 -2 -52 -2 -70 0 -17 2
0 4 38 4 39 0 53 -2 32 -4z m106 0 c-7 -2 -19 -2 -25 0 -7 3 -2 5 12 5 14 0
19 -2 13 -5z m-1313 -24 c0 -5 -4 -9 -10 -9 -5 0 -10 7 -10 16 0 8 5 12 10 9
6 -3 10 -10 10 -16z m1028 14 c-10 -2 -28 -2 -40 0 -13 2 -5 4 17 4 22 1 32
-1 23 -4z m-1612 -21 c1 -7 0 -8 -3 -2 -2 5 -9 8 -14 4 -5 -3 -9 0 -9 6 0 15
23 7 26 -8z m1457 11 c-7 -2 -21 -2 -30 0 -10 3 -4 5 12 5 17 0 24 -2 18 -5z
m424 -15 c-3 -8 -6 -5 -6 6 -1 11 2 17 5 13 3 -3 4 -12 1 -19z m-2037 -18
c-19 -16 -43 -32 -52 -35 -21 -7 -25 -74 -7 -104 9 -13 9 -22 0 -37 -11 -18
-12 -18 -6 2 3 13 -3 28 -16 43 -16 17 -18 26 -10 34 16 16 14 27 -5 20 -21
-8 25 42 73 78 50 38 67 37 23 -1z m97 8 c-3 -8 -6 -5 -6 6 -1 11 2 17 5 13 3
-3 4 -12 1 -19z m1409 13 c-3 -5 -15 -7 -26 -4 -28 7 -25 13 6 13 14 0 23 -4
20 -9z m-1456 -4 c0 -2 -10 -12 -22 -23 l-23 -19 19 23 c18 21 26 27 26 19z
m770 -19 c-13 -5 -31 -7 -39 -5 -10 3 -7 5 7 6 13 0 21 5 18 10 -4 5 4 7 16 3
22 -5 22 -5 -2 -14z m625 13 c3 -5 0 -13 -6 -17 -8 -5 -9 -3 -4 6 6 10 3 12
-13 8 -12 -4 -22 -2 -22 3 0 12 37 12 45 0z m-67 -8 c-10 -2 -28 -2 -40 0 -13
2 -5 4 17 4 22 1 32 -1 23 -4z m-1241 -35 c-3 -7 -5 -2 -5 12 0 14 2 19 5 13
2 -7 2 -19 0 -25z m1173 28 c0 -3 -4 -8 -10 -11 -5 -3 -10 -1 -10 4 0 6 5 11
10 11 6 0 10 -2 10 -4z m-1206 -21 c-4 -8 -11 -15 -16 -15 -6 0 -5 6 2 15 7 8
14 15 16 15 2 0 1 -7 -2 -15z m632 0 c-36 -19 -56 -19 -30 0 10 8 28 14 39 15
16 0 14 -3 -9 -15z m519 5 c-11 -5 -27 -9 -35 -9 -13 -1 -13 0 0 9 8 5 24 9
35 9 l20 0 -20 -9z m160 0 c3 -5 1 -10 -4 -10 -6 0 -11 5 -11 10 0 6 2 10 4
10 3 0 8 -4 11 -10z m-1417 -30 c-7 -10 -16 -16 -21 -13 -5 3 -3 9 4 14 8 5
10 9 6 9 -5 0 -5 5 -2 10 4 6 10 8 15 5 6 -4 5 -14 -2 -25z m1197 20 c-3 -5
-14 -10 -23 -9 -14 0 -13 2 3 9 27 11 27 11 20 0z m1085 0 c-18 -12 -30 -13
-30 -2 0 4 10 9 22 9 18 2 20 0 8 -7z m-1145 -10 c3 -5 -1 -10 -10 -10 -9 0
-13 5 -10 10 3 6 8 10 10 10 2 0 7 -4 10 -10z m-458 -6 c-3 -3 -12 -4 -19 -1
-8 3 -5 6 6 6 11 1 17 -2 13 -5z m1381 -25 c-3 -8 -7 -3 -11 10 -4 17 -3 21 5
13 5 -5 8 -16 6 -23z m-2094 -41 c-5 -18 -24 -16 -24 3 0 6 5 7 10 4 6 -3 10
1 10 10 0 9 -4 13 -10 10 -12 -7 -12 -3 -3 21 6 15 7 14 15 -6 5 -13 6 -31 2
-42z m118 37 c-2 -14 -9 -22 -15 -18 -6 4 -8 0 -4 -10 4 -10 10 -24 14 -34 4
-12 3 -14 -6 -8 -10 6 -11 2 -6 -15 6 -20 5 -21 -15 -10 -19 10 -22 8 -37 -29
-9 -23 -20 -41 -25 -41 -4 0 -8 -9 -8 -20 0 -11 -4 -20 -10 -20 -12 0 -6 14
48 119 57 111 73 133 64 86z m538 15 c-8 -5 -19 -10 -25 -10 -5 0 -3 5 5 10 8
5 20 10 25 10 6 0 3 -5 -5 -10z m465 0 c-27 -12 -43 -12 -25 0 8 5 22 9 30 9
10 0 8 -3 -5 -9z m265 -35 c9 -5 10 -1 6 13 -4 11 -3 23 2 26 5 3 9 -9 9 -28
-1 -26 -5 -32 -17 -28 -12 4 -12 2 3 -15 27 -31 21 -45 -15 -41 -28 3 -33 7
-33 29 -1 18 3 25 12 22 7 -3 13 0 13 6 0 6 -7 11 -15 11 -8 0 -15 5 -15 10 0
6 5 10 10 10 6 0 10 8 11 18 0 13 2 13 9 -4 5 -12 14 -25 20 -29z m-1233 19
c-3 -3 -12 -4 -19 -1 -8 3 -5 6 6 6 11 1 17 -2 13 -5z m460 0 c-3 -3 -12 -4
-19 -1 -8 3 -5 6 6 6 11 1 17 -2 13 -5z m456 -1 c-7 -2 -19 -2 -25 0 -7 3 -2
5 12 5 14 0 19 -2 13 -5z m197 -3 c0 -5 -4 -10 -10 -10 -5 0 -10 5 -10 10 0 6
5 10 10 10 6 0 10 -4 10 -10z m230 -10 c0 -5 -2 -10 -4 -10 -3 0 -8 5 -11 10
-3 6 -1 10 4 10 6 0 11 -4 11 -10z m490 0 c0 -5 -2 -10 -4 -10 -3 0 -8 5 -11
10 -3 6 -1 10 4 10 6 0 11 -4 11 -10z m-2060 -6 c0 -3 -16 -12 -35 -20 -21 -8
-33 -19 -29 -25 4 -6 0 -15 -7 -20 -11 -7 -11 -9 -1 -9 7 0 10 -4 7 -10 -3 -5
-11 -10 -16 -10 -6 0 -7 5 -3 11 4 8 -1 9 -17 5 -21 -6 -20 -4 4 9 32 18 31
33 -1 16 -11 -6 -22 -8 -25 -5 -7 8 -21 -62 -14 -73 3 -4 -1 -13 -7 -19 -10
-9 -12 0 -9 39 1 27 4 51 5 52 6 5 133 63 141 64 4 1 7 -1 7 -5z m267 0 c-3
-3 -12 -4 -19 -1 -8 3 -5 6 6 6 11 1 17 -2 13 -5z m1076 -15 c19 -1 24 -3 14
-6 -28 -7 -69 6 -61 19 6 9 9 9 12 0 2 -7 18 -13 35 -13z m-296 5 c-3 -3 -12
-4 -19 -1 -8 3 -5 6 6 6 11 1 17 -2 13 -5z m93 -4 c0 -5 -2 -10 -4 -10 -3 0
-8 5 -11 10 -3 6 -1 10 4 10 6 0 11 -4 11 -10z m-130 -4 c0 -9 -30 -14 -35 -6
-4 6 3 10 14 10 12 0 21 -2 21 -4z m60 -6 c0 -5 -5 -10 -11 -10 -5 0 -7 5 -4
10 3 6 8 10 11 10 2 0 4 -4 4 -10z m186 -3 c4 -4 -1 -7 -10 -7 -11 0 -16 -5
-13 -13 9 -25 -7 -39 -34 -28 l-24 10 23 7 c16 4 22 12 19 24 -3 11 2 16 14
15 10 -1 22 -4 25 -8z m-873 -14 c-7 -2 -19 -2 -25 0 -7 3 -2 5 12 5 14 0 19
-2 13 -5z m537 -8 c-7 -9 -15 -13 -17 -11 -7 7 7 26 19 26 6 0 6 -6 -2 -15z
m230 5 c0 -5 -2 -10 -4 -10 -3 0 -8 5 -11 10 -3 6 -1 10 4 10 6 0 11 -4 11
-10z m190 0 c0 -5 -5 -10 -11 -10 -5 0 -7 5 -4 10 3 6 8 10 11 10 2 0 4 -4 4
-10z m57 -27 c-3 -10 -5 -4 -5 12 0 17 2 24 5 18 2 -7 2 -21 0 -30z m-956 7
c-44 -20 -70 -26 -57 -12 10 9 67 30 86 31 8 0 -5 -8 -29 -19z m1979 0 c0 -5
-4 -10 -10 -10 -5 0 -10 5 -10 10 0 6 5 10 10 10 6 0 10 -4 10 -10z m-1553 -6
c-3 -3 -12 -4 -19 -1 -8 3 -5 6 6 6 11 1 17 -2 13 -5z m716 -26 c22 -3 38 -38
18 -38 -6 0 -11 7 -11 15 0 8 -5 15 -11 15 -5 0 -9 -10 -7 -22 4 -29 -16 -33
-40 -8 l-20 22 -8 -24 c-4 -12 -7 -29 -6 -35 5 -22 -15 -14 -21 8 -4 14 -10
18 -19 13 -10 -6 -10 -5 -2 7 7 8 14 23 17 34 4 18 5 18 6 -2 1 -23 1 -23 22
-4 53 47 54 47 57 34 2 -6 13 -13 25 -15z m-753 18 c0 -6 -93 -37 -97 -32 -2
2 15 11 39 19 47 17 58 19 58 13z m242 -18 c-7 -7 -12 -8 -12 -2 0 14 12 26
19 19 2 -3 -1 -11 -7 -17z m643 2 c-3 -5 -1 -11 5 -15 5 -3 10 -12 10 -18 0
-7 -5 -4 -11 6 -13 23 -29 22 -24 -2 3 -15 -4 -20 -31 -23 -19 -2 -34 0 -34 4
0 4 6 8 13 9 10 0 10 2 0 6 -28 11 -13 33 22 33 19 0 35 5 35 11 0 5 5 7 10 4
6 -4 8 -10 5 -15z m755 5 c0 -8 -4 -15 -10 -15 -5 0 -10 7 -10 15 0 8 5 15 10
15 6 0 10 -7 10 -15z m-2172 -9 c6 1 13 3 15 4 4 4 59 9 55 5 -4 -4 -113 -38
-220 -69 -27 -8 -48 -11 -48 -7 0 4 20 12 45 19 36 10 43 15 38 29 -6 16 -5
16 10 5 13 -11 23 -11 44 -3 27 11 27 11 -7 6 -21 -3 -31 -2 -25 4 11 11 67
19 75 11 3 -3 11 -5 18 -4z m717 -6 c3 -5 1 -10 -4 -10 -6 0 -11 5 -11 10 0 6
2 10 4 10 3 0 8 -4 11 -10z m408 3 c-7 -2 -13 -12 -13 -20 0 -9 -3 -14 -6 -10
-10 10 4 37 18 36 10 0 10 -2 1 -6z m-1398 -61 c-9 -29 -20 -52 -24 -52 -11 0
-24 31 -16 38 3 3 5 0 5 -6 0 -7 5 -12 10 -12 6 0 9 3 8 8 -3 10 23 84 28 79
2 -2 -3 -27 -11 -55z m1045 38 c0 -5 -7 -7 -15 -4 -8 4 -15 8 -15 10 0 2 7 4
15 4 8 0 15 -4 15 -10z m1245 0 c3 -5 2 -10 -4 -10 -5 0 -13 5 -16 10 -3 6 -2
10 4 10 5 0 13 -4 16 -10z m-1640 -9 c-13 -12 -145 -54 -151 -49 -2 3 31 17
73 31 92 30 89 29 78 18z m-708 -23 c-3 -8 -6 -5 -6 6 -1 11 2 17 5 13 3 -3 4
-12 1 -19z m1153 12 c0 -5 -4 -10 -10 -10 -5 0 -10 5 -10 10 0 6 5 10 10 10 6
0 10 -4 10 -10z m770 -5 c0 -1 -7 -8 -15 -15 -13 -10 -15 -9 -15 8 0 15 5 20
15 16 8 -4 15 -7 15 -9z m-225 -16 c17 -2 36 0 43 4 8 6 12 1 12 -13 0 -16 -5
-20 -18 -16 -10 3 -37 7 -60 8 -34 1 -42 5 -42 20 0 15 4 17 18 9 9 -5 31 -10
47 -12z m735 11 c0 -5 -4 -10 -10 -10 -5 0 -10 5 -10 10 0 6 5 10 10 10 6 0
10 -4 10 -10z m-2523 -22 c-3 -8 -6 -5 -6 6 -1 11 2 17 5 13 3 -3 4 -12 1 -19z
m1488 13 c3 -5 1 -12 -5 -16 -5 -3 -10 1 -10 9 0 18 6 21 15 7z m-35 -11 c0
-5 -2 -10 -4 -10 -3 0 -8 5 -11 10 -3 6 -1 10 4 10 6 0 11 -4 11 -10z m240
-10 c0 -4 -6 -10 -14 -13 -12 -5 -14 2 -7 31 2 7 21 -10 21 -18z m-1735 -22
c-4 -18 -14 -40 -23 -48 -14 -13 -15 -13 -5 0 6 8 14 30 18 48 3 17 9 32 12
32 2 0 2 -15 -2 -32z m791 25 c-10 -10 -46 -11 -40 -1 3 4 15 8 26 8 12 0 18
-3 14 -7z m1297 -4 c-8 -8 -16 -8 -30 0 -16 9 -14 10 12 11 21 0 26 -3 18 -11z
m-138 -31 c-2 -18 -6 -42 -9 -53 -2 -11 -5 -33 -6 -50 -2 -20 -4 -24 -7 -11
-7 27 7 146 17 146 5 0 7 -15 5 -32z m-1335 14 c0 -5 -11 -14 -25 -20 -16 -7
-25 -8 -25 -1 0 5 10 14 23 19 29 11 27 11 27 2z m114 -7 c3 -8 1 -15 -3 -15
-5 0 -11 7 -15 15 -3 8 -1 15 3 15 5 0 11 -7 15 -15z m346 5 c0 -5 -4 -10 -10
-10 -5 0 -10 5 -10 10 0 6 5 10 10 10 6 0 10 -4 10 -10z m480 0 c0 -5 -4 -10
-10 -10 -5 0 -10 5 -10 10 0 6 5 10 10 10 6 0 10 -4 10 -10z m220 -11 c0 -5
-4 -9 -10 -9 -5 0 -10 7 -10 16 0 8 5 12 10 9 6 -3 10 -10 10 -16z m50 12 c0
-5 3 -18 6 -28 4 -13 3 -15 -4 -4 -7 9 -12 10 -16 2 -10 -15 -26 -14 -26 2 0
14 20 37 32 37 4 0 8 -4 8 -9z m74 -80 c-10 -45 -22 -81 -27 -81 -5 0 -5 10
-2 21 6 19 4 21 -14 16 -14 -3 -21 0 -21 9 0 13 20 19 44 15 5 -1 6 5 3 14 -4
8 -2 15 3 15 14 0 12 34 -2 49 -11 11 -10 13 5 8 12 -4 17 -1 17 10 0 9 3 14
6 10 3 -3 -2 -42 -12 -86z m130 74 c3 -8 16 -15 30 -15 13 0 27 -7 30 -16 5
-13 4 -14 -7 -6 -8 7 -16 10 -19 7 -8 -8 -53 19 -55 33 -4 17 14 15 21 -3z
m-478 -36 c12 -19 -3 -19 -46 2 -29 14 -39 23 -30 29 12 8 65 -14 76 -31z m83
10 c-22 -14 -29 -11 -29 11 0 18 3 19 21 9 17 -9 19 -13 8 -20z m-1519 1 c-24
-15 -37 -11 -16 5 11 8 22 12 25 9 3 -3 -1 -9 -9 -14z m680 -12 c0 -5 -4 -8
-10 -8 -5 0 -10 10 -10 23 0 18 2 19 10 7 5 -8 10 -18 10 -22z m-30 7 c0 -8
-4 -15 -8 -15 -5 0 -9 7 -9 15 0 8 4 15 9 15 4 0 8 -7 8 -15z m393 -6 c4 -16
3 -18 -9 -8 -7 6 -11 15 -8 20 8 13 11 11 17 -12z m-1120 -13 c38 12 13 -5
-48 -31 -33 -14 -52 -19 -43 -12 10 8 14 18 10 22 -4 5 -1 5 6 1 19 -11 50 3
47 22 -1 9 0 11 2 4 3 -8 13 -10 26 -6z m567 5 c0 -11 -3 -22 -7 -24 -5 -3 -8
6 -8 19 0 13 3 24 8 24 4 0 7 -9 7 -19z m1750 9 c0 -5 -2 -10 -4 -10 -3 0 -8
5 -11 10 -3 6 -1 10 4 10 6 0 11 -4 11 -10z m84 -6 c3 -8 2 -12 -4 -9 -6 3
-10 10 -10 16 0 14 7 11 14 -7z m-799 -14 c-3 -5 -12 -10 -18 -10 -7 0 -6 4 3
10 19 12 23 12 15 0z m760 1 c-3 -6 1 -14 9 -18 16 -9 11 -53 -5 -53 -11 0
-29 42 -22 53 6 11 -25 8 -32 -3 -3 -5 -15 -15 -26 -20 -15 -8 -19 -7 -19 3 0
8 17 21 38 30 44 18 65 21 57 8z m-1615 -20 c0 -10 -12 -27 -27 -37 -23 -14
-26 -15 -15 -1 8 9 11 21 7 27 -8 13 3 30 21 30 8 0 14 -8 14 -19z m280 -28
c0 -7 -7 -13 -15 -13 -9 0 -12 6 -8 17 5 13 2 15 -16 10 -22 -5 -22 -5 -5 14
17 19 19 19 31 3 7 -10 13 -24 13 -31z m63 35 c11 -34 -28 -54 -40 -20 -4 9
-11 20 -17 24 -6 4 3 8 21 8 17 0 33 -6 36 -12z m947 -3 c-7 -8 -16 -12 -21
-9 -13 8 -1 24 18 24 13 0 13 -3 3 -15z m-1714 -10 c-3 -8 0 -15 7 -15 8 0 9
-2 1 -8 -6 -4 -10 -15 -8 -25 1 -11 -1 -16 -4 -12 -4 4 -5 8 -2 10 3 2 -4 11
-15 20 -17 14 -18 16 -2 11 11 -3 16 -2 12 4 -3 6 -3 15 0 20 10 15 18 12 11
-5z m830 0 c-5 -15 4 -19 34 -16 11 1 10 -3 -4 -14 -24 -19 -27 -19 -52 0 -11
8 -14 15 -6 15 6 0 12 7 12 15 0 8 5 15 11 15 6 0 9 -7 5 -15z m-856 0 c0 -2
-19 -9 -42 -15 -24 -6 -51 -15 -60 -20 -10 -5 -27 -6 -39 -2 -17 7 -10 11 42
24 67 17 99 21 99 13z m2140 -11 c0 -11 6 -15 20 -11 21 5 28 -7 10 -18 -6 -4
-7 -11 -4 -17 4 -6 -7 -1 -24 12 -17 13 -28 28 -25 36 7 19 23 18 23 -2z
m-810 -19 c12 -15 4 -16 -38 -6 -7 2 10 21 17 21 5 0 14 -7 21 -15z m606 1
c16 -17 18 -26 4 -26 -5 0 -14 9 -20 20 -12 23 -5 26 16 6z m-1943 -9 c3 -7
-3 -13 -13 -13 -10 0 -16 6 -13 13 3 7 9 13 13 13 4 0 10 -6 13 -13z m387 3
c0 -5 -4 -10 -10 -10 -5 0 -10 5 -10 10 0 6 5 10 10 10 6 0 10 -4 10 -10z
m265 -1 c11 -17 2 -18 -19 -3 -17 12 -17 14 -4 14 9 0 20 -5 23 -11z m1375 1
c0 -5 -2 -10 -4 -10 -3 0 -8 5 -11 10 -3 6 -1 10 4 10 6 0 11 -4 11 -10z m267
-12 c-3 -8 -6 -5 -6 6 -1 11 2 17 5 13 3 -3 4 -12 1 -19z m-2342 -6 c-3 -3
-11 0 -18 7 -9 10 -8 11 6 5 10 -3 15 -9 12 -12z m850 8 c-3 -5 -10 -10 -16
-10 -5 0 -9 5 -9 10 0 6 7 10 16 10 8 0 12 -4 9 -10z m-385 -14 c0 -3 -4 -8
-10 -11 -5 -3 -10 -1 -10 4 0 6 5 11 10 11 6 0 10 -2 10 -4z m440 0 c0 -3 -4
-8 -10 -11 -5 -3 -10 -1 -10 4 0 6 5 11 10 11 6 0 10 -2 10 -4z m850 -6 c0 -5
-2 -10 -4 -10 -3 0 -8 5 -11 10 -3 6 -1 10 4 10 6 0 11 -4 11 -10z"/>
<path d="M3700 6239 c0 -5 6 -9 13 -9 8 0 7 -4 -3 -10 -13 -8 -13 -10 1 -10
25 0 31 27 8 33 -10 3 -19 1 -19 -4z"/>
<path d="M3190 6191 c0 -6 4 -13 10 -16 6 -3 7 1 4 9 -7 18 -14 21 -14 7z"/>
<path d="M3955 6190 c3 -5 8 -10 11 -10 2 0 4 5 4 10 0 6 -5 10 -11 10 -5 0
-7 -4 -4 -10z"/>
<path d="M3107 6173 c-4 -3 -7 -11 -7 -17 0 -6 5 -5 12 2 6 6 9 14 7 17 -3 3
-9 2 -12 -2z"/>
<path d="M4280 6090 c0 -5 5 -10 10 -10 6 0 10 5 10 10 0 6 -4 10 -10 10 -5 0
-10 -4 -10 -10z"/>
<path d="M1426 5232 c-3 -5 1 -9 9 -9 8 0 15 4 15 9 0 4 -4 8 -9 8 -6 0 -12
-4 -15 -8z"/>
<path d="M1347 5107 c-3 -8 1 -14 9 -14 16 0 19 13 5 21 -5 3 -11 0 -14 -7z"/>
<path d="M1224 4843 c5 -12 -6 -17 -26 -14 -5 0 -8 -8 -8 -18 0 -29 34 -16 47
18 8 22 7 28 -4 28 -8 0 -12 -6 -9 -14z"/>
<path d="M1005 4330 c-3 -5 -1 -10 4 -10 6 0 11 5 11 10 0 6 -2 10 -4 10 -3 0
-8 -4 -11 -10z"/>
<path d="M905 4080 c-3 -5 -1 -10 4 -10 6 0 11 5 11 10 0 6 -2 10 -4 10 -3 0
-8 -4 -11 -10z"/>
<path d="M903 3993 c-7 -2 -13 -9 -13 -14 0 -6 8 -5 20 1 11 6 26 8 32 4 7 -4
8 -3 4 4 -7 12 -22 14 -43 5z"/>
<path d="M6737 2837 c-3 -8 0 -14 7 -14 7 0 13 6 13 14 0 7 -4 13 -8 13 -4 0
-9 -6 -12 -13z"/>
<path d="M6752 2790 c0 -14 2 -19 5 -12 2 6 2 18 0 25 -3 6 -5 1 -5 -13z"/>
<path d="M6696 2636 c-8 -33 -3 -42 11 -24 6 7 7 22 3 33 -6 17 -8 16 -14 -9z"/>
<path d="M6710 2603 c0 -5 5 -15 10 -23 8 -12 10 -11 10 8 0 12 -4 22 -10 22
-5 0 -10 -3 -10 -7z"/>
<path d="M3246 335 c-9 -26 -7 -32 5 -12 6 10 9 21 6 23 -2 3 -7 -2 -11 -11z"/>
<path d="M4520 325 c0 -9 5 -15 11 -13 6 2 11 8 11 13 0 5 -5 11 -11 13 -6 2
-11 -4 -11 -13z"/>
<path d="M4636 255 c4 -8 8 -15 10 -15 2 0 4 7 4 15 0 8 -4 15 -10 15 -5 0 -7
-7 -4 -15z"/>
<path d="M6551 6130 c-7 -71 -12 -211 -11 -310 0 -122 -3 -179 -10 -175 -5 3
-10 2 -10 -4 0 -5 5 -13 11 -17 7 -4 9 -24 6 -50 -2 -24 -1 -41 4 -38 5 3 9
18 9 35 0 32 11 37 31 13 19 -23 96 -59 157 -74 62 -14 171 -8 310 19 51 10
92 14 92 9 0 -14 -16 -42 -85 -153 -73 -117 -111 -203 -131 -294 -7 -36 -14
-70 -14 -75 0 -4 -9 -6 -20 -3 -36 9 -21 -8 45 -52 139 -91 236 -117 465 -125
l165 -6 -65 19 c-36 10 -105 37 -155 61 -76 36 -114 47 -245 69 l-155 26 52
105 c60 121 89 194 134 338 31 100 33 102 63 103 30 2 30 2 4 6 -16 2 -28 10
-28 16 0 8 -3 8 -9 -1 -6 -11 -28 -11 -112 -2 -57 6 -165 15 -239 20 -117 7
-237 23 -247 33 -1 2 4 38 12 80 19 99 21 269 5 427 -7 69 -13 126 -14 127 -1
2 -8 -56 -15 -127z"/>
<path d="M4663 6083 c9 -2 25 -2 35 0 9 3 1 5 -18 5 -19 0 -27 -2 -17 -5z"/>
<path d="M4930 5995 c0 -9 6 -12 15 -9 8 4 12 10 9 15 -8 14 -24 10 -24 -6z"/>
<path d="M4966 5981 c-11 -4 -15 -10 -10 -14 14 -8 55 3 48 14 -6 10 -12 10
-38 0z"/>
<path d="M5012 5965 c-10 -12 -7 -14 23 -13 19 1 35 5 35 10 0 4 -4 8 -9 8 -5
0 -15 2 -23 5 -7 2 -19 -2 -26 -10z"/>
<path d="M5078 5933 c7 -3 16 -2 19 1 4 3 -2 6 -13 5 -11 0 -14 -3 -6 -6z"/>
<path d="M13 5875 c-8 -8 -13 -42 -13 -82 l0 -68 53 -24 c59 -28 68 -28 232
-13 66 7 148 12 183 12 40 0 61 4 57 10 -3 6 -1 10 6 10 7 0 10 2 7 5 -10 10
-112 45 -130 45 -10 0 -26 4 -36 9 -9 5 -46 17 -82 27 -65 17 -121 41 -130 54
-6 8 -92 30 -117 30 -10 -1 -24 -7 -30 -15z"/>
<path d="M5341 5846 c-9 -11 -9 -16 0 -22 7 -4 14 -3 17 4 2 6 10 8 19 5 11
-4 14 -2 11 8 -7 20 -33 23 -47 5z"/>
<path d="M1110 5825 c-7 -14 -11 -28 -8 -31 9 -9 58 27 58 42 0 23 -36 16 -50
-11z"/>
<path d="M5496 5785 c15 -14 33 -25 40 -25 8 0 14 -9 14 -21 0 -19 1 -19 16
-4 23 22 10 49 -20 41 -16 -4 -29 1 -41 14 -10 11 -22 20 -27 20 -5 0 3 -11
18 -25z"/>
<path d="M5440 5786 c0 -9 5 -16 10 -16 6 0 10 4 10 9 0 6 -4 13 -10 16 -5 3
-10 -1 -10 -9z"/>
<path d="M1106 5769 c-16 -16 -17 -21 -7 -32 11 -9 14 -9 18 1 3 6 11 12 18
12 7 0 15 9 18 20 7 26 -21 26 -47 -1z"/>
<path d="M5598 5729 c-14 -15 -14 -18 -2 -23 10 -4 12 -2 8 6 -5 7 -2 9 8 6
23 -9 40 6 20 18 -13 8 -21 6 -34 -7z"/>
<path d="M5710 5679 c0 -5 5 -7 10 -4 6 3 10 8 10 11 0 2 -4 4 -10 4 -5 0 -10
-5 -10 -11z"/>
<path d="M1080 5540 c0 -5 5 -10 10 -10 6 0 10 5 10 10 0 6 -4 10 -10 10 -5 0
-10 -4 -10 -10z"/>
<path d="M6100 5350 c0 -5 5 -10 11 -10 5 0 7 5 4 10 -3 6 -8 10 -11 10 -2 0
-4 -4 -4 -10z"/>
<path d="M6120 5315 c0 -8 4 -15 10 -15 5 0 7 7 4 15 -4 8 -8 15 -10 15 -2 0
-4 -7 -4 -15z"/>
<path d="M6270 5034 c0 -14 3 -14 15 -4 8 7 15 14 15 16 0 2 -7 4 -15 4 -8 0
-15 -7 -15 -16z"/>
<path d="M6309 4997 c-25 -19 -9 -62 23 -62 19 -1 24 3 20 15 -4 11 1 10 19
-5 l24 -20 -15 20 c-37 50 -55 63 -71 52z"/>
<path d="M3745 4965 c-116 -32 -206 -77 -261 -130 -6 -5 -54 -50 -107 -98
-107 -99 -173 -184 -217 -283 -17 -36 -30 -68 -30 -71 0 -2 15 11 33 29 77 79
188 169 315 255 75 51 142 96 147 101 6 4 18 11 28 15 9 3 17 11 17 17 0 5 7
10 15 10 8 0 15 3 15 8 0 15 110 93 172 122 48 23 77 30 123 30 43 0 56 3 45
10 -27 18 -208 9 -295 -15z"/>
<path d="M6350 4889 c0 -5 9 -9 20 -9 11 0 20 2 20 4 0 2 -9 6 -20 9 -11 3
-20 1 -20 -4z"/>
<path d="M6410 4871 c0 -5 5 -13 10 -16 6 -3 10 -2 10 4 0 5 -4 13 -10 16 -5
3 -10 2 -10 -4z"/>
<path d="M6377 4829 c4 -12 11 -18 20 -15 8 3 21 6 29 6 8 0 14 5 14 10 0 6
-3 9 -7 9 -5 -1 -10 -1 -13 1 -3 1 -15 3 -27 6 -17 3 -20 0 -16 -17z"/>
<path d="M6425 4761 c-4 -12 -12 -18 -21 -14 -10 4 -14 -2 -14 -21 0 -30 -1
-30 36 -11 16 8 38 12 49 8 16 -5 18 -3 8 8 -6 8 -12 19 -13 24 -1 6 -6 9 -11
8 -5 -2 -9 2 -9 7 0 18 -18 11 -25 -9z m25 -21 c0 -5 -4 -10 -10 -10 -5 0 -10
5 -10 10 0 6 5 10 10 10 6 0 10 -4 10 -10z m-30 -14 c0 -3 -4 -8 -10 -11 -5
-3 -10 -1 -10 4 0 6 5 11 10 11 6 0 10 -2 10 -4z"/>
<path d="M6453 4685 c0 -8 4 -15 9 -15 4 0 8 7 8 15 0 8 -4 15 -8 15 -5 0 -9
-7 -9 -15z"/>
<path d="M6416 4544 c-9 -22 -8 -24 8 -18 20 8 29 34 12 34 -8 0 -17 -7 -20
-16z"/>
<path d="M3655 4532 c-80 -7 -162 -47 -209 -103 -58 -68 -89 -154 -141 -383
-7 -33 12 -3 25 39 46 146 131 228 283 272 64 19 178 32 192 23 6 -4 32 -13
58 -20 60 -16 185 -91 251 -151 72 -64 159 -157 174 -186 21 -38 25 -20 8 32
-24 70 -51 119 -103 182 -114 141 -241 238 -358 273 -50 14 -141 26 -180 22z"/>
<path d="M6473 4520 c-11 -16 -10 -18 1 -14 15 6 30 34 18 34 -4 0 -13 -9 -19
-20z"/>
<path d="M6510 4450 c-8 -15 -8 -20 3 -20 7 0 13 9 14 20 1 11 0 20 -2 20 -2
0 -9 -9 -15 -20z"/>
<path d="M6457 4453 c-4 -3 -7 -11 -7 -17 0 -6 5 -5 12 2 6 6 9 14 7 17 -3 3
-9 2 -12 -2z"/>
<path d="M1442 4355 c-29 -8 -69 -24 -90 -35 -34 -19 -35 -20 -7 -13 63 17
187 7 310 -25 135 -35 286 -91 329 -123 50 -38 15 6 -53 65 -35 30 -99 74
-144 97 -77 40 -84 42 -186 45 -74 3 -122 -1 -159 -11z"/>
<path d="M3602 4309 c-84 -25 -172 -162 -178 -276 l-3 -68 9 53 c11 58 37 128
45 120 3 -3 1 -25 -5 -49 -6 -24 -13 -103 -17 -175 -8 -170 7 -225 82 -299 57
-58 102 -75 193 -75 118 0 199 54 254 170 27 56 32 79 36 166 5 118 -7 184
-49 270 -56 114 -135 166 -258 170 -42 2 -91 -1 -109 -7z m58 -699 c13 -9 13
-10 0 -10 -8 0 -22 5 -30 10 -13 9 -13 10 0 10 8 0 22 -5 30 -10z"/>
<path d="M6549 4308 c0 -7 -2 -23 -3 -36 -2 -13 1 -25 6 -28 4 -3 8 13 8 35 0
23 -2 41 -5 41 -3 0 -5 -6 -6 -12z"/>
<path d="M6510 4288 c0 -9 -6 -19 -12 -21 -7 -3 -8 -6 -3 -6 6 0 17 4 25 9 12
7 12 12 2 22 -9 9 -12 9 -12 -4z"/>
<path d="M6494 4149 c-3 -6 -1 -15 5 -19 7 -4 13 -16 14 -27 1 -13 6 -19 15
-16 10 5 11 8 1 13 -7 5 -9 18 -5 34 5 19 3 26 -8 26 -8 0 -18 -5 -22 -11z"/>
<path d="M6540 4125 c0 -8 4 -15 10 -15 5 0 7 7 4 15 -4 8 -8 15 -10 15 -2 0
-4 -7 -4 -15z"/>
<path d="M6536 4015 c-3 -8 -1 -15 4 -15 6 0 10 7 10 15 0 8 -2 15 -4 15 -2 0
-6 -7 -10 -15z"/>
<path d="M1545 4013 c-61 -13 -127 -52 -172 -103 -50 -56 -78 -184 -97 -450
-4 -60 -3 -68 5 -40 22 78 42 137 61 180 26 56 150 240 180 266 29 24 85 44
127 44 46 0 164 -42 239 -84 34 -19 62 -30 62 -24 0 19 -116 124 -172 155 -88
50 -171 70 -233 56z"/>
<path d="M6540 3970 c0 -5 5 -10 11 -10 5 0 7 5 4 10 -3 6 -8 10 -11 10 -2 0
-4 -4 -4 -10z"/>
<path d="M1697 3826 c-67 -36 -157 -138 -157 -178 0 -10 -4 -17 -9 -14 -24 15
-38 -166 -21 -260 17 -91 59 -183 99 -217 26 -21 43 -27 81 -27 80 0 122 26
174 108 61 97 82 294 44 406 -27 80 -64 147 -92 168 -34 25 -86 31 -119 14z
m-157 -236 c0 -5 -4 -10 -10 -10 -5 0 -10 5 -10 10 0 6 5 10 10 10 6 0 10 -4
10 -10z"/>
<path d="M6645 3651 c-3 -6 -11 -9 -16 -6 -5 4 -9 -4 -9 -17 l0 -22 22 22 c12
12 19 24 16 27 -3 4 -9 1 -13 -4z"/>
<path d="M6639 3574 c-14 -28 -14 -36 -3 -45 11 -9 14 -6 14 14 0 14 7 27 15
31 18 7 20 22 3 29 -7 2 -20 -11 -29 -29z"/>
<path d="M4005 3375 c-51 -30 -239 -65 -354 -66 -100 0 -86 -11 38 -30 64 -9
96 -9 144 1 66 13 154 54 202 94 37 31 23 32 -30 1z"/>
<path d="M6666 3356 c3 -8 12 -12 20 -9 21 8 17 23 -6 23 -13 0 -18 -5 -14
-14z"/>
<path d="M4645 3227 c-77 -75 -100 -107 -77 -107 5 0 39 34 77 75 126 138 126
156 0 32z"/>
<path d="M4215 3180 c-35 -34 -44 -45 -68 -82 -9 -16 -24 -39 -33 -53 -9 -14
-12 -25 -7 -25 11 0 148 179 141 185 -2 2 -17 -9 -33 -25z"/>
<path d="M4365 3164 c-22 -26 -49 -55 -59 -65 -11 -10 -16 -22 -12 -26 4 -5
17 6 29 22 12 17 39 49 61 73 21 23 35 42 30 42 -5 0 -27 -21 -49 -46z"/>
<path d="M2114 3051 c-118 -72 -137 -224 -40 -307 49 -42 66 -44 32 -3 -16 19
-26 43 -26 62 0 50 38 178 66 219 13 21 24 40 24 43 0 11 -26 4 -56 -14z"/>
<path d="M1835 2990 c-23 -26 -150 -78 -217 -89 l-53 -9 70 -1 c99 -1 133 11
190 69 27 27 44 50 39 50 -6 0 -19 -9 -29 -20z"/>
<path d="M6132 2950 c-208 -50 -393 -194 -427 -332 -11 -44 12 -131 46 -169
23 -26 27 -28 18 -10 -7 15 -10 51 -7 92 6 72 6 72 108 194 104 123 224 202
350 229 56 12 60 14 25 14 -22 0 -73 -8 -113 -18z"/>
<path d="M1614 2657 c-38 -51 -57 -87 -50 -94 8 -8 26 7 37 30 5 12 18 37 30
56 30 50 19 55 -17 8z"/>
<path d="M1378 2622 c-42 -65 -64 -116 -48 -110 13 4 103 168 93 168 -5 0 -25
-26 -45 -58z"/>
<path d="M1485 2610 c-45 -63 -53 -89 -15 -55 23 21 73 106 66 112 -3 3 -25
-23 -51 -57z"/>
<path d="M5985 2529 c85 -110 95 -134 95 -231 0 -76 -3 -89 -37 -156 -72 -141
-179 -245 -289 -278 -26 -8 -76 -14 -112 -14 -84 0 -71 -13 21 -21 157 -14
333 35 413 115 45 46 74 88 74 110 0 8 4 16 10 18 5 2 11 17 14 33 2 17 7 38
11 48 13 32 -2 188 -23 237 -30 69 -91 126 -220 204 -7 4 12 -25 43 -65z"/>
<path d="M4395 2465 c-5 -2 -116 -6 -245 -9 -235 -5 -347 -19 -412 -51 -15 -7
-42 -16 -60 -20 -18 -4 -42 -13 -53 -19 -11 -7 -41 -18 -68 -25 -26 -6 -72
-22 -101 -36 -30 -14 -58 -25 -62 -25 -4 0 -26 -9 -48 -19 -23 -11 -84 -39
-136 -64 -168 -78 -431 -209 -494 -245 -185 -105 -248 -144 -267 -163 -26 -26
-59 -16 -264 76 -119 53 -310 104 -391 105 -23 0 -56 -5 -75 -12 l-34 -12 40
-7 c22 -4 119 -30 215 -57 96 -28 236 -67 310 -87 74 -20 147 -41 162 -47 24
-9 45 -3 145 36 65 26 127 51 138 56 71 32 154 68 250 106 61 25 124 51 140
58 50 23 144 62 245 101 52 20 115 44 140 55 104 42 335 114 421 130 30 5 63
14 74 19 11 5 38 14 60 19 22 5 79 21 126 35 158 47 313 78 419 84 65 4 97 9
85 14 -19 7 -240 11 -260 4z"/>
<path d="M5740 2268 c22 -33 40 -70 40 -81 0 -73 -71 -166 -128 -168 -26 -1
-26 -1 5 -9 43 -10 140 7 179 31 66 40 57 157 -18 225 -21 20 -99 64 -112 64
-3 0 12 -28 34 -62z"/>
<path d="M3013 23 c-7 -2 -13 -9 -13 -14 0 -14 26 -10 40 6 10 12 10 15 -1 14
-8 0 -20 -3 -26 -6z"/>
</g>
</svg>
